<svg xmlns:dc="http://purl.org/dc/elements/1.1/" xmlns:cc="http://creativecommons.org/ns#" xmlns:rdf="http://www.w3.org/1999/02/22-rdf-syntax-ns#" xmlns:svg="http://www.w3.org/2000/svg" xmlns="http://www.w3.org/2000/svg" xmlns:sodipodi="http://sodipodi.sourceforge.net/DTD/sodipodi-0.dtd" xmlns:inkscape="http://www.inkscape.org/namespaces/inkscape" version="1.1" x="0px" y="0px" viewBox="0 0 100 125"><g transform="translate(0,-952.36218)"><path style="text-indent:0;text-transform:none;direction:ltr;block-progression:tb;baseline-shift:baseline;color:#000000;enable-background:accumulate;" d="m 37.999999,966.3622 c -0.8455,0.016 -1.4533,0.57775 -1.7812,1.09375 l -4.4688,8.90625 -18.75,0 c -4.9514,0 -9,4.04859 -9,9 l 0,44 c 0,4.9514 4.0486,9 9,9 l 74.000002,0 c 4.9514,0 9,-4.0486 9,-9 l 0,-44 c 0,-4.95141 -4.0486,-9 -9,-9 l -18.750002,0 -4.4688,-8.90625 c -0.3322,-0.65351 -1.0481,-1.09308 -1.7812,-1.09375 z m 1.2188,4 21.5624,0 4.4376,8.875 c 0.3235,0.66504 1.0416,1.11857 1.7812,1.125 l 20.000002,0 c 2.8046,0 5,2.19539 5,5 l 0,44 c 0,2.8046 -2.1954,5 -5,5 l -74.000002,0 c -2.8046,0 -5,-2.1954 -5,-5 l 0,-44 c 0,-2.80461 2.1954,-5 5,-5 l 20,0 c 0.7396,-0.006 1.4577,-0.45996 1.7812,-1.125 z m 10.7812,17 c -11.0219,0 -20,8.97801 -20,20 0,11.022 8.9781,20 20,20 11.0221,0 20,-8.978 20,-20 0,-11.02197 -8.9779,-20 -20,-20 z m 0,4 c 8.8603,0 16,7.13978 16,16 0,8.8602 -7.1397,16 -16,16 -8.8601,0 -16,-7.1398 -16,-16 0,-8.86019 7.1399,-16 16,-16 z" fill="#000000" fill-opacity="1" stroke="none" marker="none" visibility="visible" display="inline" overflow="visible"/></g><text x="0" y="115" fill="#000000" font-size="5px" font-weight="bold" font-family="'Helvetica Neue', Helvetica, Arial-Unicode, Arial, Sans-serif">Created by Alfa Design</text><text x="0" y="120" fill="#000000" font-size="5px" font-weight="bold" font-family="'Helvetica Neue', Helvetica, Arial-Unicode, Arial, Sans-serif">from the Noun Project</text></svg>