<svg xmlns="http://www.w3.org/2000/svg" xmlns:xlink="http://www.w3.org/1999/xlink" version="1.1" x="0px" y="0px" viewBox="0 0 100 125" style="enable-background:new 0 0 100 100;" xml:space="preserve"><g><path d="M18,87.8c0.8,0.7,1.8,1.1,2.8,1.1c0.7,0,1.4-0.2,2-0.6l16.5-9.6C42.7,79.6,46.4,80,50,80c22.6,0,41-15.3,41-34   S72.6,12,50,12S9,27.3,9,46c0,9.2,4.6,18.1,12.6,24.5L17,83.2C16.3,84.8,16.7,86.7,18,87.8z M20.7,84.6l5.1-14.1   c0.3-0.8,0-1.8-0.7-2.3L24.8,68C17.3,62.3,13,54.3,13,46c0-16.5,16.6-30,37-30s37,13.5,37,30S70.4,76,50,76c-3.4,0-6.8-0.4-10-1.1   l-0.6-0.1c-0.5-0.1-1,0-1.5,0.2l-17.2,10c0,0-0.1-0.1-0.1-0.1C20.7,84.8,20.7,84.7,20.7,84.6z"/><path d="M32,37h21c1.1,0,2-0.9,2-2s-0.9-2-2-2H32c-1.1,0-2,0.9-2,2S30.9,37,32,37z"/><path d="M32,48h35c1.1,0,2-0.9,2-2s-0.9-2-2-2H32c-1.1,0-2,0.9-2,2S30.9,48,32,48z"/><path d="M32,59h35c1.1,0,2-0.9,2-2s-0.9-2-2-2H32c-1.1,0-2,0.9-2,2S30.9,59,32,59z"/></g><text x="0" y="115" fill="#000000" font-size="5px" font-weight="bold" font-family="'Helvetica Neue', Helvetica, Arial-Unicode, Arial, Sans-serif">Created by Trident</text><text x="0" y="120" fill="#000000" font-size="5px" font-weight="bold" font-family="'Helvetica Neue', Helvetica, Arial-Unicode, Arial, Sans-serif">from the Noun Project</text></svg>