<svg xmlns:dc="http://purl.org/dc/elements/1.1/" xmlns:cc="http://creativecommons.org/ns#" xmlns:rdf="http://www.w3.org/1999/02/22-rdf-syntax-ns#" xmlns:svg="http://www.w3.org/2000/svg" xmlns="http://www.w3.org/2000/svg" xmlns:sodipodi="http://sodipodi.sourceforge.net/DTD/sodipodi-0.dtd" xmlns:inkscape="http://www.inkscape.org/namespaces/inkscape" version="1.1" x="0px" y="0px" viewBox="0 0 100 125"><g transform="translate(0,-952.36218)"><path style="text-indent:0;text-transform:none;direction:ltr;block-progression:tb;baseline-shift:baseline;color:#000000;enable-background:accumulate;" d="m 37.342681,979.38172 c -3.4173,0 -6.8372,1.3371 -9.4375,4.0312 -5.2008,5.3883 -5.1949,14.0449 0,19.43758 l 21.375,22.1875 a 1.0001,1.0001 0 0 0 1.4375,0 c 7.1306,-7.3878 14.2443,-14.7684 21.375,-22.1563 5.2007,-5.38828 5.2007,-14.04918 0,-19.43748 -5.2008,-5.3883 -13.6742,-5.3884 -18.875,0 l -3.2188,3.3125 -3.2187,-3.3438 c -2.6004,-2.6941 -6.0203,-4.0312 -9.4375,-4.0312 z m 0,1.9688 c 2.8839,0 5.772,1.1292 8,3.4374 l 3.9375,4.125 a 1.0001,1.0001 0 0 0 1.4375,0 l 3.9375,-4.0937 c 4.4558,-4.6166 11.5442,-4.6165 16,0 4.4557,4.6165 4.4557,12.071 0,16.68748 -6.8901,7.1386 -13.7662,14.2677 -20.6563,21.4063 l -20.6562,-21.4375 c -4.4524,-4.62178 -4.4558,-12.07118 0,-16.68758 2.2278,-2.3082 5.116,-3.4375 8,-3.4374 z" fill="#000000" fill-opacity="1" stroke="none" marker="none" visibility="visible" display="inline" overflow="visible"/></g><text x="0" y="115" fill="#000000" font-size="5px" font-weight="bold" font-family="'Helvetica Neue', Helvetica, Arial-Unicode, Arial, Sans-serif">Created by il Capitano</text><text x="0" y="120" fill="#000000" font-size="5px" font-weight="bold" font-family="'Helvetica Neue', Helvetica, Arial-Unicode, Arial, Sans-serif">from the Noun Project</text></svg>