<svg xmlns:dc="http://purl.org/dc/elements/1.1/" xmlns:cc="http://creativecommons.org/ns#" xmlns:rdf="http://www.w3.org/1999/02/22-rdf-syntax-ns#" xmlns:svg="http://www.w3.org/2000/svg" xmlns="http://www.w3.org/2000/svg" xmlns:sodipodi="http://sodipodi.sourceforge.net/DTD/sodipodi-0.dtd" xmlns:inkscape="http://www.inkscape.org/namespaces/inkscape" version="1.1" x="0px" y="0px" viewBox="0 0 100 125"><g transform="translate(0,-952.36218)"><path d="m 11,968.36215 c -3.8260502,0 -7.0000002,3.17395 -7.0000002,7 l 0,54.00005 c 0,3.8261 3.17395,7 7.0000002,7 l 78,0 c 3.82605,0 7,-3.1739 7,-7 l 0,-54.00005 c 0,-3.82605 -3.17395,-7 -7,-7 z m 0,6 78,0 c 0.60583,0 1,0.39417 1,1 l 0,43.25005 -15.78125,-17.2812 c -0.61022,-0.6681 -1.53511,-1.0357 -2.4375,-0.9687 -0.74193,0.054 -1.45926,0.3955 -1.96875,0.9375 l -13.5625,14.4062 -20,-22.34371 c -0.60423,-0.67938 -1.53023,-1.05928 -2.4375,-1 -0.75259,0.0463 -1.48302,0.38863 -2,0.9375 l -21.8125002,23.43741 0,-41.37505 c 0,-0.60583 0.3941702,-1 1.0000002,-1 z m 46,6.00014 c -4.93503,0 -9,4.06497 -9,9 0,4.93503 4.06497,9 9,9 4.93503,0 9,-4.06497 9,-9 0,-4.93503 -4.06497,-9 -9,-9 z m 0,6 c 1.69239,0 3,1.3076 3,3 0,1.69239 -1.30761,3 -3,3 -1.69239,0 -3,-1.30761 -3,-3 0,-1.6924 1.30761,-3 3,-3 z m -23.0625,13.4375 27.34375,30.56241 -50.28125,0 c -0.60583,0 -1.0000002,-0.3941 -1.0000002,-1 l 0,-3.8437 z m 38.03125,7.96871 18.03125,19.75 0,1.8437 c 0,0.6059 -0.39417,1 -1,1 l -19.65625,0 L 60.25,1020.206 z" style="text-indent:0;text-transform:none;direction:ltr;block-progression:tb;baseline-shift:baseline;color:#000000;enable-background:accumulate;" fill="#000000" fill-opacity="1" stroke="none" marker="none" visibility="visible" display="inline" overflow="visible"/></g><text x="0" y="115" fill="#000000" font-size="5px" font-weight="bold" font-family="'Helvetica Neue', Helvetica, Arial-Unicode, Arial, Sans-serif">Created by Alfa Design</text><text x="0" y="120" fill="#000000" font-size="5px" font-weight="bold" font-family="'Helvetica Neue', Helvetica, Arial-Unicode, Arial, Sans-serif">from the Noun Project</text></svg>